<?xml version="1.0" standalone="no"?>
<!DOCTYPE svg PUBLIC "-//W3C//DTD SVG 20010904//EN"
 "http://www.w3.org/TR/2001/REC-SVG-20010904/DTD/svg10.dtd">
<svg version="1.0" xmlns="http://www.w3.org/2000/svg"
 width="810.000000pt" height="810.000000pt" viewBox="0 0 810.000000 810.000000"
 preserveAspectRatio="xMidYMid meet">
<metadata>
Created by potrace 1.14, written by Peter Selinger 2001-2017
</metadata>
<g transform="translate(0.000000,810.000000) scale(0.100000,-0.100000)"
fill="#000000" stroke="none">
<path d="M3694 7718 c-2 -3 -15 -5 -28 -4 -13 2 -50 -1 -82 -6 -33 -4 -77 -10
-99 -12 -56 -6 -124 -15 -160 -23 -16 -3 -39 -7 -50 -9 -37 -6 -80 -14 -105
-21 -29 -8 -58 -13 -82 -16 -10 -1 -18 -6 -18 -11 0 -5 -3 -7 -6 -3 -3 3 -23
-1 -45 -8 -21 -8 -39 -12 -39 -9 0 2 -9 0 -19 -6 -11 -5 -32 -12 -48 -14 -15
-2 -41 -8 -56 -15 -16 -6 -34 -11 -41 -11 -7 0 -16 -3 -20 -7 -4 -5 -12 -9
-17 -9 -5 -1 -11 -3 -14 -4 -3 -1 -8 -3 -12 -5 -11 -2 -40 -14 -92 -36 -24
-11 -50 -19 -57 -19 -8 0 -14 -4 -14 -10 0 -5 -3 -9 -7 -8 -14 3 -63 -14 -63
-21 0 -4 -6 -8 -12 -8 -23 -1 -43 -8 -50 -18 -4 -5 -11 -10 -15 -11 -15 -1
-143 -65 -148 -75 -4 -5 -11 -7 -16 -4 -5 4 -9 2 -9 -3 0 -6 -10 -12 -23 -16
-12 -3 -31 -14 -42 -24 -11 -10 -26 -17 -33 -14 -6 2 -12 -1 -12 -7 0 -6 -5
-11 -11 -11 -6 0 -25 -10 -42 -22 -18 -13 -34 -23 -37 -23 -9 -1 -215 -139
-218 -147 -2 -4 -10 -8 -17 -8 -8 0 -23 -12 -34 -26 -12 -15 -21 -24 -21 -20
0 3 -10 -3 -22 -13 -57 -49 -67 -57 -96 -79 -16 -13 -47 -39 -69 -58 -21 -19
-41 -34 -45 -34 -5 0 -8 -8 -8 -17 0 -9 -2 -14 -6 -11 -8 9 -316 -306 -385
-394 -10 -13 -40 -52 -68 -88 -28 -36 -58 -74 -68 -85 -10 -11 -31 -40 -48
-65 -16 -25 -33 -46 -37 -48 -5 -2 -8 -8 -8 -14 0 -6 -10 -25 -23 -42 -21 -29
-47 -71 -104 -171 -27 -47 -170 -334 -195 -391 -15 -35 -74 -202 -98 -279 -31
-100 -87 -333 -104 -432 -53 -302 -61 -393 -61 -678 0 -197 8 -395 19 -450 2
-11 7 -47 10 -80 4 -33 9 -71 11 -85 2 -14 6 -47 10 -75 9 -82 49 -262 98
-445 65 -239 199 -560 319 -763 15 -26 28 -50 28 -53 0 -5 51 -86 60 -94 8 -8
27 -41 46 -77 9 -18 20 -33 25 -33 5 0 9 -4 9 -10 0 -9 108 -157 138 -188 7
-8 24 -30 39 -50 42 -57 338 -349 438 -432 50 -41 92 -78 93 -82 2 -5 8 -8 14
-8 5 0 16 -7 24 -15 9 -8 46 -36 82 -62 37 -26 68 -51 70 -55 2 -5 10 -8 17
-8 8 0 18 -6 22 -13 4 -8 20 -20 35 -28 15 -8 76 -44 135 -81 273 -168 542
-284 948 -408 58 -18 431 -88 500 -95 39 -3 81 -8 95 -10 93 -15 541 -21 670
-10 70 7 259 31 300 39 14 3 41 7 60 10 19 2 71 12 115 21 44 9 87 18 95 20 8
2 40 10 71 19 31 9 67 19 80 21 96 19 404 135 586 221 39 19 76 34 82 34 6 0
11 5 11 10 0 6 4 10 10 10 5 0 32 13 60 30 27 16 50 26 50 22 0 -4 4 -2 8 4
10 14 85 59 95 56 4 -1 7 2 7 8 0 5 6 10 14 10 7 0 25 11 40 25 15 14 31 25
35 25 5 0 14 7 21 15 7 8 16 12 21 9 5 -3 9 0 9 7 0 7 3 10 6 6 3 -3 17 5 31
19 13 13 27 24 31 24 4 0 24 16 45 35 21 19 39 33 41 32 3 -1 16 8 30 20 15
13 29 23 32 23 4 0 17 12 30 28 13 15 24 23 24 17 0 -5 7 1 16 13 8 12 20 22
25 22 6 0 48 37 95 83 46 46 84 81 84 79 0 -3 9 6 125 133 44 49 92 101 108
117 15 16 27 31 27 34 0 5 67 92 80 104 3 3 17 21 30 40 14 19 32 44 42 54 10
11 20 28 24 38 3 10 10 18 15 18 6 0 7 5 4 10 -3 6 -2 10 3 10 9 0 137 192
133 199 -2 2 2 7 7 10 5 3 24 33 42 66 18 33 37 66 43 72 5 7 6 13 1 13 -5 0
-4 4 2 8 9 5 103 189 109 212 1 3 8 19 15 35 7 17 14 32 15 35 4 13 20 50 41
98 13 29 24 59 24 67 0 9 4 23 10 33 9 15 94 298 105 347 2 11 7 31 9 45 3 14
8 34 10 45 20 93 35 166 40 195 3 19 12 78 20 130 9 52 18 131 22 175 3 44 8
83 11 87 5 10 4 435 -1 468 -3 14 -10 75 -16 135 -35 353 -124 703 -260 1026
-58 139 -200 421 -260 517 -22 34 -40 66 -41 70 -3 10 -32 55 -44 68 -5 6 -19
27 -30 47 -11 20 -23 37 -27 37 -5 0 -8 5 -8 10 0 6 -5 16 -10 23 -6 7 -36 46
-68 88 -31 41 -64 83 -72 93 -39 45 -310 320 -310 314 0 -4 -20 12 -45 35 -55
51 -60 55 -117 100 -26 19 -44 38 -41 41 4 3 0 6 -8 6 -8 0 -29 14 -48 30 -18
17 -36 30 -40 30 -3 0 -21 14 -40 31 -19 16 -52 39 -73 51 -21 12 -38 26 -38
30 0 5 -4 6 -10 3 -5 -3 -10 -2 -10 3 0 4 -33 28 -72 51 -40 23 -93 55 -118
70 -25 15 -79 45 -120 67 -41 21 -76 42 -78 47 -2 4 -8 7 -14 7 -6 0 -35 11
-65 25 -136 64 -162 75 -218 96 -33 12 -63 26 -66 31 -3 5 -10 9 -15 8 -12 -2
-97 21 -109 30 -9 6 -52 19 -72 21 -5 1 -16 5 -26 11 -10 5 -40 15 -65 23
-123 34 -290 77 -312 81 -14 3 -70 13 -125 24 -205 38 -335 48 -628 46 -137 0
-251 -4 -253 -8z m386 -203 c133 -5 160 -8 217 -19 15 -3 53 -8 83 -11 75 -8
236 -38 440 -81 184 -39 560 -178 780 -289 182 -91 425 -239 486 -295 18 -16
35 -26 38 -23 3 4 6 1 6 -5 0 -6 8 -13 18 -16 9 -3 34 -21 55 -40 21 -18 65
-58 99 -87 93 -81 276 -266 338 -342 30 -37 58 -67 63 -67 4 0 7 -5 7 -11 0
-5 27 -46 60 -90 33 -44 60 -84 60 -89 0 -6 5 -10 10 -10 6 0 10 -7 10 -15 0
-8 3 -15 8 -15 4 0 23 -26 41 -57 19 -32 37 -60 41 -63 12 -10 118 -196 127
-222 3 -10 9 -18 14 -18 5 0 9 -6 9 -12 0 -7 22 -56 48 -108 48 -98 56 -115
92 -210 11 -30 25 -64 30 -75 25 -54 91 -308 115 -442 2 -16 9 -53 15 -83 6
-30 13 -84 16 -120 3 -35 7 -67 9 -70 17 -28 26 -569 13 -750 -10 -130 -27
-310 -33 -340 -2 -14 -7 -42 -10 -64 -3 -21 -7 -41 -9 -45 -2 -3 -7 -24 -10
-46 -4 -22 -8 -47 -11 -55 -2 -8 -6 -26 -9 -40 -8 -42 -24 -99 -60 -215 -1 -5
-6 -27 -11 -48 -4 -20 -11 -40 -16 -43 -5 -3 -9 -12 -9 -20 0 -8 -8 -34 -19
-57 -20 -47 -33 -81 -31 -85 0 -1 -6 -15 -14 -30 -19 -35 -96 -203 -96 -209 0
-3 -9 -17 -20 -33 -11 -15 -17 -30 -13 -34 3 -3 1 -6 -5 -6 -7 0 -12 -6 -12
-13 0 -7 -11 -29 -25 -50 -14 -20 -22 -37 -18 -37 4 0 4 -4 -2 -8 -11 -8 -26
-30 -55 -84 -11 -21 -25 -38 -31 -38 -6 0 -8 -4 -5 -9 3 -5 -7 -25 -22 -45
-44 -58 -86 -118 -97 -138 -5 -10 -13 -18 -17 -18 -5 0 -8 -5 -8 -11 0 -9 -54
-80 -95 -124 -5 -7 -28 -33 -50 -60 -63 -76 -135 -156 -187 -206 -26 -25 -48
-51 -48 -58 0 -7 -4 -10 -9 -6 -5 3 -17 -5 -25 -17 -9 -12 -16 -19 -16 -15 0
4 -6 2 -14 -5 -8 -7 -12 -16 -9 -21 2 -4 0 -6 -5 -5 -5 2 -27 -13 -49 -32 -23
-19 -56 -46 -74 -60 -17 -14 -39 -33 -47 -42 -9 -9 -19 -15 -24 -12 -4 3 -8 1
-8 -5 0 -5 -13 -18 -29 -27 -17 -10 -27 -22 -24 -27 3 -6 1 -7 -4 -4 -10 6
-47 -17 -81 -50 -8 -7 -18 -11 -23 -8 -5 4 -9 2 -9 -4 0 -6 -12 -17 -27 -25
-16 -8 -39 -24 -52 -35 -13 -12 -30 -21 -38 -21 -7 0 -13 -7 -13 -16 0 -8 -4
-12 -10 -9 -5 3 -19 -3 -31 -14 -11 -10 -42 -30 -67 -43 -26 -12 -49 -26 -52
-29 -16 -19 -190 -98 -345 -158 -60 -24 -119 -47 -130 -51 -17 -8 -60 -22 -75
-25 -3 -1 -39 -12 -80 -25 -41 -13 -88 -25 -103 -27 -16 -1 -37 -8 -48 -13
-10 -6 -19 -8 -19 -6 0 3 -11 1 -24 -4 -13 -5 -43 -12 -67 -15 -24 -4 -46 -8
-49 -10 -3 -2 -26 -6 -50 -10 -25 -3 -52 -8 -60 -10 -14 -4 -53 -9 -160 -21
-108 -12 -272 -19 -423 -18 -151 1 -344 11 -357 19 -3 1 -30 6 -60 9 -30 4
-66 8 -80 10 -14 2 -47 8 -75 12 -27 4 -54 8 -60 10 -5 1 -46 9 -90 18 -140
30 -220 48 -230 54 -5 4 -19 8 -30 10 -16 2 -66 15 -105 27 -3 1 -18 7 -35 14
-16 7 -39 15 -50 17 -18 3 -36 9 -90 30 -11 4 -22 8 -25 9 -3 0 -23 9 -45 19
-22 10 -51 23 -65 28 -14 6 -40 18 -59 27 -19 9 -37 16 -40 16 -3 1 -43 19
-88 42 -46 23 -83 38 -83 35 0 -4 -4 -2 -8 4 -4 6 -34 25 -67 43 -33 18 -65
37 -71 42 -6 5 -14 6 -17 2 -4 -3 -7 -1 -7 6 0 7 -4 10 -9 7 -5 -4 -11 -3 -13
2 -1 4 -42 34 -91 67 -48 32 -87 63 -87 67 0 5 -4 7 -8 4 -4 -3 -25 10 -45 29
-20 19 -37 32 -37 29 0 -3 -6 1 -14 8 -28 27 -76 68 -80 68 -19 0 -407 386
-414 412 -1 4 -17 23 -35 41 -45 46 -87 96 -87 102 0 3 -12 18 -26 33 -14 15
-33 39 -42 55 -9 15 -20 27 -24 27 -4 0 -8 5 -8 10 0 6 -6 18 -13 26 -35 42
-49 63 -74 112 -9 17 -20 32 -25 32 -4 0 -8 4 -8 10 0 5 -18 37 -40 71 -22 34
-40 68 -40 75 0 7 -3 14 -7 16 -7 3 -47 74 -49 87 0 3 -19 44 -41 91 -22 47
-45 101 -52 120 -17 46 -25 67 -46 114 -9 21 -19 46 -20 55 -2 9 -4 17 -4 19
-1 1 0 3 1 5 1 1 -4 11 -10 23 -6 11 -13 32 -16 45 -2 13 -11 44 -20 69 -8 25
-17 56 -19 70 -3 14 -14 63 -25 110 -26 107 -37 163 -34 174 2 4 -2 13 -7 20
-8 10 -14 44 -25 166 -7 70 -18 165 -22 185 -5 26 -5 484 0 550 13 169 31 319
41 355 5 19 12 61 30 180 4 25 16 81 27 125 11 44 21 88 23 97 2 9 9 27 16 40
7 13 11 23 9 23 -4 0 8 43 20 70 4 11 20 56 35 100 16 44 31 85 35 90 4 6 13
28 20 50 13 40 131 279 194 391 41 75 203 322 228 348 10 11 18 23 18 26 0 4
8 16 17 28 45 52 53 63 53 67 0 3 16 21 35 40 19 19 32 35 29 35 -2 0 10 15
28 34 18 19 69 72 113 119 44 47 83 83 88 80 4 -2 6 -1 5 4 -2 5 14 25 35 45
20 20 37 34 37 32 0 -3 12 6 27 21 76 70 105 95 114 95 6 0 8 4 4 9 -3 5 4 12
15 16 11 3 20 11 20 16 0 5 6 9 13 9 7 0 19 9 27 19 7 11 17 18 22 15 4 -3 11
2 14 10 3 9 10 16 15 16 13 0 72 42 82 58 4 6 12 12 18 12 11 0 61 33 97 64
12 11 22 16 22 12 0 -5 16 4 35 18 19 15 35 24 35 21 0 -3 17 6 37 20 21 14
43 25 50 25 7 0 13 5 13 11 0 5 4 8 9 5 5 -3 14 1 21 9 7 8 19 15 26 15 8 0
14 5 14 12 0 6 3 9 6 6 3 -3 37 9 75 28 38 19 75 34 83 34 7 0 16 3 20 8 4 4
11 7 14 7 4 1 17 6 28 13 12 6 24 8 28 5 3 -3 6 -1 6 6 0 7 4 10 9 6 5 -3 12
-1 15 4 3 5 30 15 58 22 29 6 60 16 68 20 29 16 231 70 240 64 6 -3 10 -2 10
2 0 10 99 35 111 27 5 -3 9 -1 9 4 0 5 17 12 38 15 20 3 48 8 62 11 75 16 126
24 220 31 36 3 85 8 110 10 25 3 96 7 159 10 63 2 116 6 118 9 2 2 12 2 21 0
9 -2 78 -6 152 -9z"/>
<path d="M2440 5300 c0 -6 -3 -9 -7 -9 -25 4 -24 -4 3 -29 132 -118 241 -402
279 -727 4 -27 8 -51 10 -54 2 -2 0 -12 -5 -22 -6 -10 -6 -20 -1 -23 8 -6 7
-358 -2 -431 -3 -22 -8 -69 -11 -105 -8 -81 -13 -111 -32 -180 -36 -128 -66
-220 -75 -226 -5 -3 -9 -11 -9 -18 0 -8 -7 -31 -16 -52 -9 -22 -15 -41 -14
-43 1 -2 -2 -7 -7 -10 -5 -3 -20 -28 -33 -56 -13 -27 -30 -56 -37 -64 -8 -7
-11 -16 -8 -19 3 -3 54 -4 113 -2 213 6 386 2 457 -11 28 -6 66 -12 85 -15 19
-2 58 -10 85 -16 28 -7 52 -13 55 -13 113 -23 313 -109 421 -182 69 -46 133
-100 208 -174 92 -91 91 -91 166 -17 91 89 145 139 145 132 0 -4 14 7 30 23
31 31 160 111 168 105 3 -2 8 0 11 5 5 8 55 34 74 39 4 1 9 3 12 4 3 1 8 3 13
5 8 2 58 22 82 32 8 4 22 8 30 9 19 3 47 10 87 23 17 5 34 7 37 3 3 -3 6 -1 6
4 0 5 8 10 18 10 9 1 35 4 57 8 107 20 228 30 365 29 131 0 249 -8 258 -17 3
-3 11 -1 19 5 10 9 13 8 13 -2 0 -11 2 -11 10 1 5 9 5 19 0 26 -6 6 -6 15 -2
19 4 5 2 5 -4 2 -14 -8 -135 230 -157 308 -9 31 -19 78 -20 98 -1 9 -5 17 -10
17 -5 0 -7 6 -4 14 3 7 2 17 -3 22 -5 5 -11 29 -14 54 -3 25 -7 54 -10 65 -2
11 -7 49 -10 85 -4 36 -9 83 -12 105 -6 49 -5 416 1 465 2 19 7 64 10 100 16
190 70 397 140 538 35 70 63 107 105 135 13 9 19 17 12 17 -7 0 -11 4 -7 9 14
24 -193 -31 -325 -86 -223 -92 -492 -253 -632 -380 -156 -141 -262 -247 -304
-304 -13 -19 -30 -38 -37 -44 -7 -5 -56 -68 -110 -140 -53 -71 -102 -136 -108
-143 -13 -16 -29 -12 -43 13 -6 10 -18 27 -26 37 -8 10 -13 21 -12 25 2 3 0 9
-5 12 -4 3 -30 39 -58 80 -27 40 -57 84 -65 96 -31 45 -168 184 -250 254 -29
25 -58 50 -64 55 -17 17 -68 58 -106 86 -19 14 -42 33 -52 43 -10 9 -21 17
-24 17 -3 0 -20 11 -38 25 -18 14 -38 25 -44 25 -7 0 -12 5 -12 10 0 6 -7 10
-15 10 -8 0 -15 5 -15 10 0 6 -4 10 -9 10 -8 0 -76 37 -129 72 -71 45 -352
169 -414 182 -13 3 -47 12 -75 20 -29 8 -53 12 -53 10 0 -2 -11 1 -25 6 -16 6
-25 6 -25 0z"/>
</g>
</svg>
